<?xml version="1.0" encoding="UTF-8" standalone="no"?>
<!-- Created with Inkscape (http://www.inkscape.org/) -->

<svg
   xmlns:dc="http://purl.org/dc/elements/1.1/"
   xmlns:cc="http://creativecommons.org/ns#"
   xmlns:rdf="http://www.w3.org/1999/02/22-rdf-syntax-ns#"
   xmlns:svg="http://www.w3.org/2000/svg"
   xmlns="http://www.w3.org/2000/svg"
   xmlns:sodipodi="http://sodipodi.sourceforge.net/DTD/sodipodi-0.dtd"
   xmlns:inkscape="http://www.inkscape.org/namespaces/inkscape"
   id="svg2"
   version="1.1"
   inkscape:version="0.91 r13725"
   width="22.559328"
   height="22.000002"
   viewBox="0 0 208.84607 198.6184"
   sodipodi:docname="nokey_icon.svg">
  <metadata
     id="metadata8">
    <rdf:RDF>
      <cc:Work
         rdf:about="">
        <dc:format>image/svg+xml</dc:format>
        <dc:type
           rdf:resource="http://purl.org/dc/dcmitype/StillImage" />
        <dc:title />
      </cc:Work>
    </rdf:RDF>
  </metadata>
  <defs
     id="defs6" />
  <sodipodi:namedview
     pagecolor="#ffffff"
     bordercolor="#666666"
     borderopacity="1"
     objecttolerance="10"
     gridtolerance="10"
     guidetolerance="10"
     inkscape:pageopacity="0"
     inkscape:pageshadow="2"
     inkscape:window-width="1366"
     inkscape:window-height="714"
     id="namedview4"
     showgrid="false"
     showguides="true"
     inkscape:zoom="2.828427"
     inkscape:cx="-34.63684"
     inkscape:cy="10.823223"
     inkscape:window-x="0"
     inkscape:window-y="25"
     inkscape:window-maximized="1"
     inkscape:current-layer="svg2"
     fit-margin-top="0"
     fit-margin-left="0"
     fit-margin-right="0"
     fit-margin-bottom="0" />
  <rect
     style="opacity:0;fill:#008080;fill-opacity:1;stroke:none;stroke-width:126.84169006;stroke-linecap:square;stroke-miterlimit:4;stroke-dasharray:none;stroke-opacity:1"
     id="rect4143-6-7"
     width="208.84604"
     height="203.66803"
     x="-809.39355"
     y="-314.39075"
     rx="0"
     ry="0" />
  <rect
     style="opacity:0;fill:#008080;fill-opacity:1;stroke:none;stroke-width:10;stroke-linecap:square;stroke-miterlimit:4;stroke-dasharray:none;stroke-opacity:1"
     id="rect4143-6"
     width="203.66803"
     height="198.61839"
     x="-1783.2585"
     y="-1122.057"
     rx="0"
     ry="0" />
  <g
     transform="matrix(1.6274513,0,0,1.6274513,-1994.943,-1118.1589)"
     id="g4167-6-2-2"
     style="fill:#f0f0f0;fill-opacity:1">
    <g
       id="g4204-6-8"
       style="fill:#f0f0f0;fill-opacity:1">
      <path
         style="fill:#f0f0f0;fill-opacity:1"
         d="m -158.29883,173.18359 c -11.21679,0 -20.24609,5.57784 -20.24609,12.50586 l 0,44.6836 c 0,6.92802 9.0293,12.50586 20.24609,12.50586 l 53,0 c 11.216802,0 20.248049,-5.57784 20.248049,-12.50586 l 0,-44.6836 c 0,-6.92802 -9.031247,-12.50586 -20.248049,-12.50586 l -53,0 z m 4.89453,8.57422 12.75782,0.0508 8.26953,23.34375 9.42578,-23.34375 12.75976,-0.0176 -21.43945,52.47656 -12.51367,0.0351 6.09961,-15.10937 -15.35938,-37.43555 z"
         transform="translate(324.44174,-130.6634)"
         id="rect4148-7-1-9"
         inkscape:connector-curvature="0" />
    </g>
  </g>
  <g
     id="g4219-7-3"
     style="stroke:#f0f0f0;stroke-opacity:1"
     transform="matrix(1.6274513,0,0,1.6274513,-1871.5426,-1117.4004)">
    <path
       style="fill:none;fill-opacity:1;stroke:#f0f0f0;stroke-width:10;stroke-linecap:square;stroke-miterlimit:4;stroke-dasharray:none;stroke-opacity:1"
       d="m 86.023563,39.465862 a 30.985773,26.901751 0 0 1 14.718627,-25.95969 30.985773,26.901751 0 0 1 33.31878,0.643277 30.985773,26.901751 0 0 1 13.37489,26.502083"
       id="path4165-3-9-6"
       inkscape:connector-curvature="0" />
  </g>
  <rect
     style="opacity:0;fill:#008080;fill-opacity:1;stroke:none;stroke-width:1174.25427246;stroke-linecap:square;stroke-miterlimit:4;stroke-dasharray:none;stroke-opacity:1"
     id="rect4143-6-7-3-7-6"
     width="208.84607"
     height="203.66803"
     x="-208.84607"
     y="-2.5248108"
     rx="0"
     ry="0"
     transform="scale(-1,1)" />
  <path
     style="fill:#818181;fill-opacity:1;stroke:none;stroke-width:138.24031067;stroke-miterlimit:4;stroke-dasharray:none;stroke-opacity:1"
     d="m 105.0412,2.4113982 c 2.52481,0.007 5.07243,0.40615 7.66648,1.30185 17.95649,6.8384598 34.5127,16.9855698 52.86979,22.9090398 7.68319,4.5355 20.07895,2.16935 25.00646,9.70967 0.19913,13.13234 -1.35808,26.31685 -3.39928,39.29071 -7.3579,44.829002 -31.13129,88.103102 -69.5046,113.532622 -3.55584,2.29874 -6.91301,4.97249 -10.6499,6.97938 -8.674351,0.80857 -15.526641,-7.97123 -22.692061,-12.33145 -37.02902,-30.32716 -58.89952,-76.66657 -64.38759,-123.730492 0.5735,-8.78412 -5.0611,-20.57132 1.50075,-27.37512 18.30333,-3.66723 35.73984,-10.72732 52.49007,-18.84074 C 83.792509,9.5412782 94.100569,2.3800182 105.0412,2.4113982 Z m 29.05668,28.7854598 -29.68953,29.67145 -29.671441,-29.67145 -23.4334,23.43339 29.67145,29.67145 -29.67145,29.689542 23.4334,23.43339 29.671441,-29.68954 29.68953,29.68954 23.4334,-23.43339 -29.68953,-29.689542 29.68953,-29.67145 -23.4334,-23.43339 z"
     id="path4800-2-6-28-9-5-3-6-5-4"
     inkscape:connector-curvature="0" />
  <rect
     style="opacity:0;fill:#008080;fill-opacity:1;stroke:none;stroke-width:1174.25427246;stroke-linecap:square;stroke-miterlimit:4;stroke-dasharray:none;stroke-opacity:1"
     id="rect4143-6-7-3-7-6-91"
     width="208.84607"
     height="203.66803"
     x="260.09641"
     y="-21.040083"
     rx="0"
     ry="0" />
</svg>
