<?xml version="1.0" encoding="UTF-8" standalone="no"?>
<!-- Created with Inkscape (http://www.inkscape.org/) -->

<svg
   xmlns:dc="http://purl.org/dc/elements/1.1/"
   xmlns:cc="http://creativecommons.org/ns#"
   xmlns:rdf="http://www.w3.org/1999/02/22-rdf-syntax-ns#"
   xmlns:svg="http://www.w3.org/2000/svg"
   xmlns="http://www.w3.org/2000/svg"
   xmlns:sodipodi="http://sodipodi.sourceforge.net/DTD/sodipodi-0.dtd"
   xmlns:inkscape="http://www.inkscape.org/namespaces/inkscape"
   id="svg2"
   version="1.1"
   inkscape:version="0.91 r13725"
   width="22.559328"
   height="22.000002"
   viewBox="0 0 208.84607 198.6184"
   sodipodi:docname="nokey_icon.svg">
  <metadata
     id="metadata8">
    <rdf:RDF>
      <cc:Work
         rdf:about="">
        <dc:format>image/svg+xml</dc:format>
        <dc:type
           rdf:resource="http://purl.org/dc/dcmitype/StillImage" />
        <dc:title></dc:title>
      </cc:Work>
    </rdf:RDF>
  </metadata>
  <defs
     id="defs6" />
  <sodipodi:namedview
     pagecolor="#ffffff"
     bordercolor="#666666"
     borderopacity="1"
     objecttolerance="10"
     gridtolerance="10"
     guidetolerance="10"
     inkscape:pageopacity="0"
     inkscape:pageshadow="2"
     inkscape:window-width="1366"
     inkscape:window-height="714"
     id="namedview4"
     showgrid="false"
     showguides="true"
     inkscape:zoom="11.313708"
     inkscape:cx="-9.4513892"
     inkscape:cy="11"
     inkscape:window-x="0"
     inkscape:window-y="25"
     inkscape:window-maximized="1"
     inkscape:current-layer="svg2"
     fit-margin-top="0"
     fit-margin-left="0"
     fit-margin-right="0"
     fit-margin-bottom="0" />
  <rect
     style="opacity:0;fill:#008080;fill-opacity:1;stroke:none;stroke-width:126.84169006;stroke-linecap:square;stroke-miterlimit:4;stroke-dasharray:none;stroke-opacity:1"
     id="rect4143-6-7"
     width="208.84604"
     height="203.66803"
     x="-809.39355"
     y="-314.39075"
     rx="0"
     ry="0" />
  <rect
     style="opacity:0;fill:#008080;fill-opacity:1;stroke:none;stroke-width:10;stroke-linecap:square;stroke-miterlimit:4;stroke-dasharray:none;stroke-opacity:1"
     id="rect4143-6"
     width="203.66803"
     height="198.61839"
     x="-1783.2585"
     y="-1122.057"
     rx="0"
     ry="0" />
  <g
     transform="matrix(1.6274513,0,0,1.6274513,-1994.943,-1118.1589)"
     id="g4167-6-2-2"
     style="fill:#f0f0f0;fill-opacity:1">
    <g
       id="g4204-6-8"
       style="fill:#f0f0f0;fill-opacity:1">
      <path
         style="fill:#f0f0f0;fill-opacity:1"
         d="m -158.29883,173.18359 c -11.21679,0 -20.24609,5.57784 -20.24609,12.50586 l 0,44.6836 c 0,6.92802 9.0293,12.50586 20.24609,12.50586 l 53,0 c 11.216802,0 20.248049,-5.57784 20.248049,-12.50586 l 0,-44.6836 c 0,-6.92802 -9.031247,-12.50586 -20.248049,-12.50586 l -53,0 z m 4.89453,8.57422 12.75782,0.0508 8.26953,23.34375 9.42578,-23.34375 12.75976,-0.0176 -21.43945,52.47656 -12.51367,0.0351 6.09961,-15.10937 -15.35938,-37.43555 z"
         transform="translate(324.44174,-130.6634)"
         id="rect4148-7-1-9"
         inkscape:connector-curvature="0" />
    </g>
  </g>
  <g
     id="g4219-7-3"
     style="stroke:#f0f0f0;stroke-opacity:1"
     transform="matrix(1.6274513,0,0,1.6274513,-1871.5426,-1117.4004)">
    <path
       style="fill:none;fill-opacity:1;stroke:#f0f0f0;stroke-width:10;stroke-linecap:square;stroke-miterlimit:4;stroke-dasharray:none;stroke-opacity:1"
       d="m 86.023563,39.465862 a 30.985773,26.901751 0 0 1 14.718627,-25.95969 30.985773,26.901751 0 0 1 33.31878,0.643277 30.985773,26.901751 0 0 1 13.37489,26.502083"
       id="path4165-3-9-6"
       inkscape:connector-curvature="0" />
  </g>
  <rect
     style="opacity:0.98999999;fill:#ff00ff;fill-opacity:1;stroke:none;stroke-width:1.61300004;stroke-linecap:butt;stroke-miterlimit:4;stroke-dasharray:none;stroke-opacity:1"
     id="rect5210"
     width="472.13947"
     height="499.91241"
     x="-2028.5859"
     y="-393.22855" />
  <path
     style="fill:#f0f0f0;fill-opacity:1;stroke:none;stroke-width:14.93257046;stroke-miterlimit:4;stroke-dasharray:none;stroke-opacity:1"
     d="m -705.58843,-309.44249 c -2.52482,0.007 -5.07373,0.40245 -7.66778,1.29815 -17.95649,6.83847 -34.52109,16.9933 -52.87818,22.91677 -7.68319,4.5355 -20.06629,2.15257 -24.9938,9.69289 -0.19913,13.13234 1.3513,26.31697 3.39251,39.29083 7.35789,44.82898 31.13855,88.11577 69.51187,113.54528 3.55584,2.29874 6.90798,4.96853 10.64488,6.97543 8.67433,0.80857 15.5263,-7.96359 22.69175,-12.32382 37.02901,-30.32715 58.90042,-76.67621 64.38849,-123.74014 -0.57346,-8.78412 5.056,-20.5613 -1.50586,-27.36511 -18.30334,-3.66723 -35.72986,-10.73578 -52.48009,-18.84921 -9.85119,-4.31559 -20.16316,-11.47246 -31.10379,-11.44107 z m -48.39521,37.30032 28.94018,0.10385 18.76268,52.94742 21.37629,-52.94742 c 9.64667,-0.0132 19.2934,-0.0214 28.9402,-0.0346 -16.20881,39.67346 -32.41152,79.34123 -48.62023,119.01485 -9.46061,0.0267 -18.92573,0.0594 -28.38633,0.0868 l 13.82968,-34.27129 c -11.61188,-28.30211 -23.23035,-56.59728 -34.84247,-84.89933 z"
     id="path4800-2-6-28-9-5-3"
     inkscape:connector-curvature="0" />
  <path
     style="fill:none;fill-opacity:1;stroke:#565656;stroke-width:8.09552574;stroke-miterlimit:4;stroke-dasharray:none;stroke-opacity:1"
     d="m -271.24448,-310.06398 c -2.40634,0.007 -4.84043,0.38145 -7.31276,1.2351 -17.11379,6.51755 -32.90934,16.20448 -50.40492,21.84999 -7.32259,4.32263 -19.11417,2.03779 -23.81049,9.22422 -0.18977,12.51604 1.27961,25.08083 3.22504,37.44583 7.01257,42.72517 29.68325,83.98438 66.25569,108.22053 3.38897,2.19089 6.57435,4.73347 10.1359,6.64622 8.26723,0.77063 14.80516,-7.58786 21.63432,-11.74351 35.2912,-28.90384 56.13371,-73.07964 61.36413,-117.93488 -0.5465,-8.37192 4.81291,-19.59041 -1.44096,-26.07493 -17.4444,-3.49511 -34.0388,-10.23547 -50.00295,-17.96816 -9.38886,-4.11304 -19.21583,-10.93034 -29.643,-10.90041 z"
     id="path5276-0-1"
     inkscape:connector-curvature="0" />
  <g
     id="g4377"
     transform="matrix(0.95727149,0,0,0.95727149,-330.25077,-604.17054)">
    <path
       inkscape:connector-curvature="0"
       id="path5276-0-0"
       d="m -169.55442,313.02963 c -2.51376,0.007 -5.05649,0.39848 -7.63918,1.29023 -17.87767,6.80847 -34.37827,16.92778 -52.65478,22.82528 -7.64944,4.51558 -19.96735,2.12875 -24.87329,9.63595 -0.19824,13.0747 1.33673,26.20034 3.369,39.11726 7.32557,44.63225 31.00817,87.7331 69.21306,113.05105 3.54023,2.28868 6.8678,4.94474 10.58832,6.94287 8.63624,0.80505 15.466,-7.92654 22.59998,-12.26768 36.86645,-30.19399 58.63928,-76.34161 64.10317,-123.19901 -0.57092,-8.74561 5.02773,-20.46484 -1.50528,-27.2388 -18.22305,-3.65113 -35.55814,-10.69234 -52.23487,-18.77018 -9.80793,-4.29664 -20.07354,-11.41823 -30.96613,-11.38697 z"
       style="fill:none;fill-opacity:1;stroke:#2aff00;stroke-width:8.46148014;stroke-miterlimit:4;stroke-dasharray:none;stroke-opacity:1" />
    <path
       inkscape:connector-curvature="0"
       id="rect4148-7-1-9-5-2-7-9-2-3-6-9"
       d="m -220.14417,347.23977 c 10.07576,0.0401 20.15142,0.0803 30.22713,0.12041 6.53104,18.43619 13.06207,36.87237 19.59316,55.30847 7.44418,-18.4361 14.88835,-36.87228 22.33258,-55.30847 10.07731,-0.0138 20.15439,-0.028 30.23175,-0.0417 -16.93231,41.4443 -33.86446,82.88865 -50.79666,124.33312 -9.88291,0.0278 -19.76571,0.0555 -29.64861,0.0833 4.8172,-11.93306 9.63434,-23.86607 14.45159,-35.79897 -12.1302,-29.56541 -24.26052,-59.13095 -36.39094,-88.69629 z"
       style="fill:#2aff00;fill-opacity:1;stroke:none" />
    <path
       style="fill:none;fill-opacity:1;stroke:#2aff00;stroke-width:7.96631575;stroke-miterlimit:4;stroke-dasharray:none;stroke-opacity:1"
       d="m -169.51914,318.67432 c -2.36667,0.007 -4.76061,0.37516 -7.19215,1.21472 -16.83148,6.41004 -32.36646,15.93718 -49.57342,21.48956 -7.20181,4.25132 -18.79888,2.00416 -23.41773,9.07204 -0.18663,12.30957 1.25851,24.66711 3.17185,36.82813 6.89687,42.02038 29.19359,82.59897 65.16272,106.43531 3.33307,2.15476 6.4659,4.65538 9.96869,6.53658 8.13085,0.75793 14.56093,-7.46268 21.27743,-11.54977 34.70905,-28.42705 55.207729,-71.87413 60.351872,-115.98942 -0.53751,-8.23383 4.733509,-19.26724 -1.417191,-25.64481 -17.156631,-3.43745 -33.477281,-10.06661 -49.178091,-17.67173 -9.23398,-4.04521 -18.89884,-10.75004 -29.15398,-10.72061 z"
       id="path4375"
       inkscape:connector-curvature="0" />
  </g>
  <rect
     style="opacity:0;fill:#008080;fill-opacity:1;stroke:none;stroke-width:126.84169006;stroke-linecap:square;stroke-miterlimit:4;stroke-dasharray:none;stroke-opacity:1"
     id="rect4143-6-7-3"
     width="208.84604"
     height="203.66801"
     x="-755.07275"
     y="67.108421"
     rx="0"
     ry="0" />
  <path
     style="fill:#2aff00;fill-opacity:1;stroke:none;stroke-width:14.93257046;stroke-miterlimit:4;stroke-dasharray:none;stroke-opacity:1"
     d="m -651.26762,72.056667 c -2.52481,0.007 -5.07373,0.40246 -7.66778,1.29816 -17.95649,6.838459 -34.52109,16.993289 -52.87818,22.916759 -7.68319,4.535504 -20.06629,2.15257 -24.9938,9.692894 -0.19913,13.13234 1.3513,26.31697 3.39251,39.29083 7.35789,44.82898 31.13855,88.11576 69.51187,113.54527 3.55584,2.29874 6.90798,4.96853 10.64488,6.97543 8.67433,0.80856 15.52631,-7.96359 22.69175,-12.32381 37.029,-30.32716 58.90041,-76.67622 64.38848,-123.74013 -0.57346,-8.78412 5.056,-20.56131 -1.50586,-27.36511 -18.30334,-3.667234 -35.72985,-10.735794 -52.48008,-18.849214 -9.85119,-4.315589 -20.16316,-11.472459 -31.10379,-11.441079 z m -48.39521,37.300323 28.94018,0.10386 18.76268,52.94741 21.37629,-52.94741 c 9.64667,-0.0132 19.29341,-0.0215 28.94021,-0.0346 -16.20882,39.67345 -32.41152,79.34122 -48.62024,119.01484 -9.46062,0.0268 -18.92573,0.0592 -28.38633,0.087 l 13.82968,-34.27153 c -11.61188,-28.3021 -23.23035,-56.59727 -34.84247,-84.89932 z"
     id="path4800-2-6-28-9-5-3-6"
     inkscape:connector-curvature="0" />
  <text
     xml:space="preserve"
     style="font-style:normal;font-variant:normal;font-weight:normal;font-stretch:normal;font-size:184.26487732px;line-height:125%;font-family:Loma;-inkscape-font-specification:Loma;letter-spacing:0px;word-spacing:0px;fill:#565656;fill-opacity:1;stroke:none;stroke-width:1px;stroke-linecap:butt;stroke-linejoin:miter;stroke-opacity:1"
     x="-66.917419"
     y="-242.64444"
     id="text5326"
     sodipodi:linespacing="125%"><tspan
       sodipodi:role="line"
       id="tspan5328"
       x="-66.917419"
       y="-242.64444">?</tspan></text>
  <rect
     style="opacity:0;fill:#008080;fill-opacity:1;stroke:none;stroke-width:1174.25427246;stroke-linecap:square;stroke-miterlimit:4;stroke-dasharray:none;stroke-opacity:1"
     id="rect4143-6-7-3-7-6"
     width="208.84607"
     height="203.66803"
     x="-208.84607"
     y="-2.5248108"
     rx="0"
     ry="0"
     transform="scale(-1,1)" />
  <path
     style="fill:#818181;fill-opacity:1;stroke:none;stroke-width:138.24031067;stroke-miterlimit:4;stroke-dasharray:none;stroke-opacity:1"
     d="m 105.0412,2.4113982 c 2.52481,0.007 5.07243,0.40615 7.66648,1.30185 17.95649,6.8384598 34.5127,16.9855698 52.86979,22.9090398 7.68319,4.5355 20.07895,2.16935 25.00646,9.70967 0.19913,13.13234 -1.35808,26.31685 -3.39928,39.29071 -7.3579,44.829002 -31.13129,88.103102 -69.5046,113.532622 -3.55584,2.29874 -6.91301,4.97249 -10.6499,6.97938 -8.674351,0.80857 -15.526641,-7.97123 -22.692061,-12.33145 -37.02902,-30.32716 -58.89952,-76.66657 -64.38759,-123.730492 0.5735,-8.78412 -5.0611,-20.57132 1.50075,-27.37512 18.30333,-3.66723 35.73984,-10.72732 52.49007,-18.84074 C 83.792509,9.5412782 94.100569,2.3800182 105.0412,2.4113982 Z m 29.05668,28.7854598 -29.68953,29.67145 -29.671441,-29.67145 -23.4334,23.43339 29.67145,29.67145 -29.67145,29.689542 23.4334,23.43339 29.671441,-29.68954 29.68953,29.68954 23.4334,-23.43339 -29.68953,-29.689542 29.68953,-29.67145 -23.4334,-23.43339 z"
     id="path4800-2-6-28-9-5-3-6-5-4"
     inkscape:connector-curvature="0" />
  <rect
     style="opacity:0;fill:#008080;fill-opacity:1;stroke:none;stroke-width:1174.25427246;stroke-linecap:square;stroke-miterlimit:4;stroke-dasharray:none;stroke-opacity:1"
     id="rect4143-6-7-3-7-6-9"
     width="208.84607"
     height="203.66803"
     x="-570.52014"
     y="-46.711246"
     rx="0"
     ry="0"
     transform="scale(-1,1)" />
  <path
     style="fill:#727272;fill-opacity:1;stroke:none;stroke-width:138.24031067;stroke-miterlimit:4;stroke-dasharray:none;stroke-opacity:1"
     d="m 707.41909,-48.710362 c 2.5248,0.007 5.0725,0.40615 7.6665,1.30185 17.9565,6.83847 34.5127,16.98557 52.8698,22.90904 7.6832,4.5355 20.079,2.16935 25.0065,9.70967 0.1991,13.1323382 -1.3581,26.316849 -3.3993,39.29071 -7.3579,44.828999 -31.1313,88.103102 -69.5046,113.532622 -3.5559,2.29874 -6.913,4.97248 -10.6499,6.97939 -8.6744,0.80856 -15.5267,-7.97123 -22.6921,-12.33146 -37.029,-30.32716 -58.8995,-76.666562 -64.38754,-123.7304888 0.57351,-8.78412199 -5.06115,-20.5713232 1.50074,-27.3751232 18.3033,-3.66723 35.7398,-10.72731 52.4901,-18.84074 9.8512,-4.31558 20.1592,-11.47685 31.0998,-11.44547 z m 33.0346,30.3947 -33.6493,33.64934 -33.6494,-33.64934 -18.1355,18.11748421 33.6493,33.64934079 -33.6493,33.64934 18.1355,18.135565 33.6494,-33.667421 33.6493,33.667421 18.1175,-18.135565 -33.6493,-33.64934 33.6493,-33.64934079 -18.1175,-18.11748421 z"
     id="path4800-2-6-28-9-5-3-6-5-4-7"
     inkscape:connector-curvature="0" />
  <rect
     style="opacity:0;fill:#008080;fill-opacity:1;stroke:none;stroke-width:1174.25427246;stroke-linecap:square;stroke-miterlimit:4;stroke-dasharray:none;stroke-opacity:1"
     id="rect4143-6-7-3-7-6-91"
     width="208.84607"
     height="203.66803"
     x="260.09641"
     y="-21.040083"
     rx="0"
     ry="0" />
  <path
     style="fill:#727272;fill-opacity:1;stroke:none;stroke-width:138.24031067;stroke-miterlimit:4;stroke-dasharray:none;stroke-opacity:1"
     d="m 363.9008,-16.09597 c -2.5248,0.007 -5.07243,0.406151 -7.66648,1.301855 -17.95649,6.8384621 -34.51269,16.9855641 -52.86978,22.9090351 -7.68319,4.5355009 -20.07896,2.1693499 -25.00647,9.7096699 -0.19913,13.13234 1.35808,26.316853 3.39928,39.290715 7.3579,44.828995 31.13129,88.103105 69.50461,113.532615 3.55584,2.29875 6.91301,4.9725 10.6499,6.97941 8.67434,0.80856 15.52663,-7.97124 22.69205,-12.33148 37.02902,-30.32716 58.89953,-76.666556 64.38761,-123.730483 -0.5735,-8.784122 5.06109,-20.571322 -1.50076,-27.375123 C 429.18743,10.523015 411.75093,3.4629271 395.00069,-4.6504939 385.1495,-8.9660826 374.84143,-16.127351 363.9008,-16.09597 Z"
     id="path4800-2-6-28-9-5-3-6-5-4-70"
     inkscape:connector-curvature="0"
     sodipodi:nodetypes="cccccccccccc" />
  <path
     style="color:#000000;font-style:normal;font-variant:normal;font-weight:normal;font-stretch:normal;font-size:medium;line-height:normal;font-family:sans-serif;text-indent:0;text-align:start;text-decoration:none;text-decoration-line:none;text-decoration-style:solid;text-decoration-color:#000000;letter-spacing:normal;word-spacing:normal;text-transform:none;direction:ltr;block-progression:tb;writing-mode:lr-tb;baseline-shift:baseline;text-anchor:start;white-space:normal;clip-rule:nonzero;display:inline;overflow:visible;visibility:visible;opacity:1;isolation:auto;mix-blend-mode:normal;color-interpolation:sRGB;color-interpolation-filters:linearRGB;solid-color:#000000;solid-opacity:1;fill:#000000;fill-opacity:1;fill-rule:evenodd;stroke:none;stroke-width:33.14234161;stroke-linecap:butt;stroke-linejoin:miter;stroke-miterlimit:4;stroke-dasharray:none;stroke-dashoffset:0;stroke-opacity:1;color-rendering:auto;image-rendering:auto;shape-rendering:auto;text-rendering:auto;enable-background:accumulate"
     d="m 334.83897,12.675732 -23.43339,23.433393 29.68953,29.67145 -29.68953,29.689549 23.43339,23.433376 29.68954,-29.689536 29.67145,29.689536 23.43339,-23.433376 -29.67145,-29.689549 29.67145,-29.67145 -23.43339,-23.433393 -29.67145,29.67145 -29.68954,-29.67145 z"
     id="path4573-6"
     inkscape:connector-curvature="0" />
</svg>
