<?xml version="1.0" encoding="UTF-8" standalone="no"?>
<!-- Created with Inkscape (http://www.inkscape.org/) -->

<svg
   xmlns:dc="http://purl.org/dc/elements/1.1/"
   xmlns:cc="http://creativecommons.org/ns#"
   xmlns:rdf="http://www.w3.org/1999/02/22-rdf-syntax-ns#"
   xmlns:svg="http://www.w3.org/2000/svg"
   xmlns="http://www.w3.org/2000/svg"
   xmlns:sodipodi="http://sodipodi.sourceforge.net/DTD/sodipodi-0.dtd"
   xmlns:inkscape="http://www.inkscape.org/namespaces/inkscape"
   id="svg2"
   version="1.1"
   inkscape:version="0.91 r13725"
   width="22.559324"
   height="22"
   viewBox="0 0 208.84603 198.61838"
   sodipodi:docname="off_icon.svg">
  <metadata
     id="metadata8">
    <rdf:RDF>
      <cc:Work
         rdf:about="">
        <dc:format>image/svg+xml</dc:format>
        <dc:type
           rdf:resource="http://purl.org/dc/dcmitype/StillImage" />
        <dc:title />
      </cc:Work>
    </rdf:RDF>
  </metadata>
  <defs
     id="defs6" />
  <sodipodi:namedview
     pagecolor="#ffffff"
     bordercolor="#666666"
     borderopacity="1"
     objecttolerance="10"
     gridtolerance="10"
     guidetolerance="10"
     inkscape:pageopacity="0"
     inkscape:pageshadow="2"
     inkscape:window-width="1366"
     inkscape:window-height="714"
     id="namedview4"
     showgrid="false"
     showguides="false"
     inkscape:zoom="2"
     inkscape:cx="-25.267427"
     inkscape:cy="-22.837579"
     inkscape:window-x="0"
     inkscape:window-y="25"
     inkscape:window-maximized="1"
     inkscape:current-layer="svg2"
     fit-margin-top="0"
     fit-margin-left="0"
     fit-margin-right="0"
     fit-margin-bottom="0" />
  <rect
     style="opacity:0;fill:#008080;fill-opacity:1;stroke:none;stroke-width:126.84169006;stroke-linecap:square;stroke-miterlimit:4;stroke-dasharray:none;stroke-opacity:1"
     id="rect4143-6-7"
     width="208.84604"
     height="203.66803"
     x="0"
     y="-2.3426085"
     rx="0"
     ry="0" />
  <path
     style="fill:#f0f0f0;fill-opacity:1;stroke:none;stroke-width:14.93257046;stroke-miterlimit:4;stroke-dasharray:none;stroke-opacity:1"
     d="m 103.80514,2.6056401 c -2.52482,0.00724 -5.07373,0.402455 -7.66778,1.2981551 C 78.18087,10.742259 61.61627,20.897088 43.25918,26.82056 c -7.68319,4.535502 -20.06629,2.152572 -24.9938,9.692892 -0.19913,13.132339 1.3513,26.316972 3.39251,39.290826 7.35789,44.828982 31.13855,88.115772 69.51187,113.545282 3.55584,2.29874 6.90798,4.96853 10.64488,6.97543 8.67433,0.80857 15.5263,-7.96359 22.69175,-12.32382 37.029,-30.32715 58.90041,-76.67621 64.38848,-123.740136 -0.57346,-8.784119 5.056,-20.561304 -1.50586,-27.365107 C 169.08567,29.228693 151.65916,22.16014 134.90893,14.046714 125.05774,9.7311244 114.74577,2.5742539 103.80514,2.6056401 Z m -48.39521,37.3003229 28.94018,0.103854 18.76268,52.947419 21.37629,-52.947419 c 9.64667,-0.0132 19.2934,-0.02144 28.9402,-0.03465 -16.20881,39.673452 -32.41152,79.341223 -48.62023,119.014843 -9.46061,0.0267 -18.92573,0.0594 -28.38633,0.0868 L 90.2524,124.80552 C 78.64052,96.503413 67.02205,68.208242 55.40993,39.90619 Z"
     id="path4800-2-6-28-9-5-3"
     inkscape:connector-curvature="0" />
</svg>
