<?xml version="1.0" encoding="UTF-8" standalone="no"?>
<!-- Created with Inkscape (http://www.inkscape.org/) -->

<svg
   xmlns:dc="http://purl.org/dc/elements/1.1/"
   xmlns:cc="http://creativecommons.org/ns#"
   xmlns:rdf="http://www.w3.org/1999/02/22-rdf-syntax-ns#"
   xmlns:svg="http://www.w3.org/2000/svg"
   xmlns="http://www.w3.org/2000/svg"
   xmlns:sodipodi="http://sodipodi.sourceforge.net/DTD/sodipodi-0.dtd"
   xmlns:inkscape="http://www.inkscape.org/namespaces/inkscape"
   id="svg2"
   version="1.1"
   inkscape:version="0.91 r13725"
   width="22.559324"
   height="22"
   viewBox="0 0 208.84603 198.61838"
   sodipodi:docname="off_icon.svg">
  <metadata
     id="metadata8">
    <rdf:RDF>
      <cc:Work
         rdf:about="">
        <dc:format>image/svg+xml</dc:format>
        <dc:type
           rdf:resource="http://purl.org/dc/dcmitype/StillImage" />
        <dc:title></dc:title>
      </cc:Work>
    </rdf:RDF>
  </metadata>
  <defs
     id="defs6" />
  <sodipodi:namedview
     pagecolor="#ffffff"
     bordercolor="#666666"
     borderopacity="1"
     objecttolerance="10"
     gridtolerance="10"
     guidetolerance="10"
     inkscape:pageopacity="0"
     inkscape:pageshadow="2"
     inkscape:window-width="1366"
     inkscape:window-height="714"
     id="namedview4"
     showgrid="false"
     showguides="false"
     inkscape:zoom="5.6568542"
     inkscape:cx="6.9059315"
     inkscape:cy="-2.4840259"
     inkscape:window-x="0"
     inkscape:window-y="25"
     inkscape:window-maximized="1"
     inkscape:current-layer="svg2"
     fit-margin-top="0"
     fit-margin-left="0"
     fit-margin-right="0"
     fit-margin-bottom="0" />
  <rect
     style="opacity:0;fill:#008080;fill-opacity:1;stroke:none;stroke-width:126.84169006;stroke-linecap:square;stroke-miterlimit:4;stroke-dasharray:none;stroke-opacity:1"
     id="rect4143-6-7"
     width="208.84604"
     height="203.66803"
     x="0"
     y="-2.3426085"
     rx="0"
     ry="0" />
  <rect
     style="opacity:0;fill:#008080;fill-opacity:1;stroke:none;stroke-width:10;stroke-linecap:square;stroke-miterlimit:4;stroke-dasharray:none;stroke-opacity:1"
     id="rect4143-6"
     width="203.66803"
     height="198.61839"
     x="-973.86493"
     y="-810.00885"
     rx="0"
     ry="0" />
  <g
     transform="matrix(1.6274513,0,0,1.6274513,-1185.5495,-806.1107)"
     id="g4167-6-2-2"
     style="fill:#f0f0f0;fill-opacity:1">
    <g
       id="g4204-6-8"
       style="fill:#f0f0f0;fill-opacity:1">
      <path
         style="fill:#f0f0f0;fill-opacity:1"
         d="m -158.29883,173.18359 c -11.21679,0 -20.24609,5.57784 -20.24609,12.50586 l 0,44.6836 c 0,6.92802 9.0293,12.50586 20.24609,12.50586 l 53,0 c 11.216802,0 20.248049,-5.57784 20.248049,-12.50586 l 0,-44.6836 c 0,-6.92802 -9.031247,-12.50586 -20.248049,-12.50586 l -53,0 z m 4.89453,8.57422 12.75782,0.0508 8.26953,23.34375 9.42578,-23.34375 12.75976,-0.0176 -21.43945,52.47656 -12.51367,0.0351 6.09961,-15.10937 -15.35938,-37.43555 z"
         transform="translate(324.44174,-130.6634)"
         id="rect4148-7-1-9"
         inkscape:connector-curvature="0" />
    </g>
  </g>
  <g
     id="g4219-7-3"
     style="stroke:#f0f0f0;stroke-opacity:1"
     transform="matrix(1.6274513,0,0,1.6274513,-1062.1491,-805.35219)">
    <path
       style="fill:none;fill-opacity:1;stroke:#f0f0f0;stroke-width:10;stroke-linecap:square;stroke-miterlimit:4;stroke-dasharray:none;stroke-opacity:1"
       d="m 86.023563,39.465862 a 30.985773,26.901751 0 0 1 14.718627,-25.95969 30.985773,26.901751 0 0 1 33.31878,0.643277 30.985773,26.901751 0 0 1 13.37489,26.502083"
       id="path4165-3-9-6"
       inkscape:connector-curvature="0" />
  </g>
  <rect
     style="opacity:0.98999999;fill:#ff00ff;fill-opacity:1;stroke:none;stroke-width:1.61300004;stroke-linecap:butt;stroke-miterlimit:4;stroke-dasharray:none;stroke-opacity:1"
     id="rect5210"
     width="472.13947"
     height="499.91241"
     x="-1219.1924"
     y="-81.180405" />
  <path
     style="fill:#f0f0f0;fill-opacity:1;stroke:none;stroke-width:14.93257046;stroke-miterlimit:4;stroke-dasharray:none;stroke-opacity:1"
     d="m 103.80514,2.6056401 c -2.52482,0.00724 -5.07373,0.402455 -7.66778,1.2981551 C 78.18087,10.742259 61.61627,20.897088 43.25918,26.82056 c -7.68319,4.535502 -20.06629,2.152572 -24.9938,9.692892 -0.19913,13.132339 1.3513,26.316972 3.39251,39.290826 7.35789,44.828982 31.13855,88.115772 69.51187,113.545282 3.55584,2.29874 6.90798,4.96853 10.64488,6.97543 8.67433,0.80857 15.5263,-7.96359 22.69175,-12.32382 37.029,-30.32715 58.90041,-76.67621 64.38848,-123.740136 -0.57346,-8.784119 5.056,-20.561304 -1.50586,-27.365107 C 169.08567,29.228693 151.65916,22.16014 134.90893,14.046714 125.05774,9.7311244 114.74577,2.5742539 103.80514,2.6056401 Z m -48.39521,37.3003229 28.94018,0.103854 18.76268,52.947419 21.37629,-52.947419 c 9.64667,-0.0132 19.2934,-0.02144 28.9402,-0.03465 -16.20881,39.673452 -32.41152,79.341223 -48.62023,119.014843 -9.46061,0.0267 -18.92573,0.0594 -28.38633,0.0868 L 90.2524,124.80552 C 78.64052,96.503413 67.02205,68.208242 55.40993,39.90619 Z"
     id="path4800-2-6-28-9-5-3"
     inkscape:connector-curvature="0" />
  <g
     id="g4162"
     transform="matrix(0.52538015,0,0,0.52538015,-357.42532,-441.80079)">
    <path
       inkscape:connector-curvature="0"
       id="path5276-0-1"
       d="m 1704.6217,844.69301 c -4.5802,0.0134 -9.2132,0.72605 -13.919,2.35087 -32.5741,12.40539 -62.6391,30.84334 -95.9399,41.58891 -13.9377,8.22763 -36.3816,3.8787 -45.3205,17.55723 -0.3612,23.82282 2.4356,47.73845 6.1385,71.27378 13.3476,81.3224 56.4986,159.8545 126.11,205.9852 6.4505,4.1701 12.5135,9.0096 19.2925,12.6503 15.7357,1.4668 28.1799,-14.4426 41.1784,-22.3524 67.1727,-55.0151 106.844,-139.0986 116.7995,-224.47533 -1.0402,-15.93497 9.1608,-37.28806 -2.7427,-49.63059 -33.2034,-6.65255 -64.7889,-19.48203 -95.1748,-34.2003 -17.8706,-7.82871 -36.5751,-20.80463 -56.422,-20.74767 z"
       style="fill:none;fill-opacity:1;stroke:#565656;stroke-width:15.40889072;stroke-miterlimit:4;stroke-dasharray:none;stroke-opacity:1" />
    <text
       sodipodi:linespacing="125%"
       id="text5326"
       y="1149.2266"
       x="1608.9615"
       style="font-style:normal;font-variant:normal;font-weight:normal;font-stretch:normal;font-size:350.72674561px;line-height:125%;font-family:Loma;-inkscape-font-specification:Loma;letter-spacing:0px;word-spacing:0px;fill:#565656;fill-opacity:1;stroke:none;stroke-width:1px;stroke-linecap:butt;stroke-linejoin:miter;stroke-opacity:1"
       xml:space="preserve"><tspan
         y="1149.2266"
         x="1608.9615"
         id="tspan5328"
         sodipodi:role="line">?</tspan></text>
  </g>
  <g
     id="g4377"
     transform="matrix(0.95727149,0,0,0.95727149,479.14279,-292.12241)">
    <path
       inkscape:connector-curvature="0"
       id="path5276-0-0"
       d="m -169.55442,313.02963 c -2.51376,0.007 -5.05649,0.39848 -7.63918,1.29023 -17.87767,6.80847 -34.37827,16.92778 -52.65478,22.82528 -7.64944,4.51558 -19.96735,2.12875 -24.87329,9.63595 -0.19824,13.0747 1.33673,26.20034 3.369,39.11726 7.32557,44.63225 31.00817,87.7331 69.21306,113.05105 3.54023,2.28868 6.8678,4.94474 10.58832,6.94287 8.63624,0.80505 15.466,-7.92654 22.59998,-12.26768 36.86645,-30.19399 58.63928,-76.34161 64.10317,-123.19901 -0.57092,-8.74561 5.02773,-20.46484 -1.50528,-27.2388 -18.22305,-3.65113 -35.55814,-10.69234 -52.23487,-18.77018 -9.80793,-4.29664 -20.07354,-11.41823 -30.96613,-11.38697 z"
       style="fill:none;fill-opacity:1;stroke:#2aff00;stroke-width:8.46148014;stroke-miterlimit:4;stroke-dasharray:none;stroke-opacity:1" />
    <path
       inkscape:connector-curvature="0"
       id="rect4148-7-1-9-5-2-7-9-2-3-6-9"
       d="m -220.14417,347.23977 c 10.07576,0.0401 20.15142,0.0803 30.22713,0.12041 6.53104,18.43619 13.06207,36.87237 19.59316,55.30847 7.44418,-18.4361 14.88835,-36.87228 22.33258,-55.30847 10.07731,-0.0138 20.15439,-0.028 30.23175,-0.0417 -16.93231,41.4443 -33.86446,82.88865 -50.79666,124.33312 -9.88291,0.0278 -19.76571,0.0555 -29.64861,0.0833 4.8172,-11.93306 9.63434,-23.86607 14.45159,-35.79897 -12.1302,-29.56541 -24.26052,-59.13095 -36.39094,-88.69629 z"
       style="fill:#2aff00;fill-opacity:1;stroke:none" />
    <path
       style="fill:none;fill-opacity:1;stroke:#2aff00;stroke-width:7.96631575;stroke-miterlimit:4;stroke-dasharray:none;stroke-opacity:1"
       d="m -169.51914,318.67432 c -2.36667,0.007 -4.76061,0.37516 -7.19215,1.21472 -16.83148,6.41004 -32.36646,15.93718 -49.57342,21.48956 -7.20181,4.25132 -18.79888,2.00416 -23.41773,9.07204 -0.18663,12.30957 1.25851,24.66711 3.17185,36.82813 6.89687,42.02038 29.19359,82.59897 65.16272,106.43531 3.33307,2.15476 6.4659,4.65538 9.96869,6.53658 8.13085,0.75793 14.56093,-7.46268 21.27743,-11.54977 34.70905,-28.42705 55.207729,-71.87413 60.351872,-115.98942 -0.53751,-8.23383 4.733509,-19.26724 -1.417191,-25.64481 -17.156631,-3.43745 -33.477281,-10.06661 -49.178091,-17.67173 -9.23398,-4.04521 -18.89884,-10.75004 -29.15398,-10.72061 z"
       id="path4375"
       inkscape:connector-curvature="0" />
  </g>
</svg>
