<?xml version="1.0" encoding="UTF-8" standalone="no"?>
<!-- Created with Inkscape (http://www.inkscape.org/) -->

<svg
   xmlns:dc="http://purl.org/dc/elements/1.1/"
   xmlns:cc="http://creativecommons.org/ns#"
   xmlns:rdf="http://www.w3.org/1999/02/22-rdf-syntax-ns#"
   xmlns:svg="http://www.w3.org/2000/svg"
   xmlns="http://www.w3.org/2000/svg"
   xmlns:sodipodi="http://sodipodi.sourceforge.net/DTD/sodipodi-0.dtd"
   xmlns:inkscape="http://www.inkscape.org/namespaces/inkscape"
   id="svg2"
   version="1.1"
   inkscape:version="0.91 r13725"
   width="22.559326"
   height="22.000002"
   viewBox="0 0 208.84605 198.6184"
   sodipodi:docname="on_icon.svg">
  <metadata
     id="metadata8">
    <rdf:RDF>
      <cc:Work
         rdf:about="">
        <dc:format>image/svg+xml</dc:format>
        <dc:type
           rdf:resource="http://purl.org/dc/dcmitype/StillImage" />
        <dc:title />
      </cc:Work>
    </rdf:RDF>
  </metadata>
  <defs
     id="defs6" />
  <sodipodi:namedview
     pagecolor="#ffffff"
     bordercolor="#666666"
     borderopacity="1"
     objecttolerance="10"
     gridtolerance="10"
     guidetolerance="10"
     inkscape:pageopacity="0"
     inkscape:pageshadow="2"
     inkscape:window-width="1366"
     inkscape:window-height="714"
     id="namedview4"
     showgrid="false"
     showguides="false"
     inkscape:zoom="1.4142136"
     inkscape:cx="-24.594366"
     inkscape:cy="7.2059809"
     inkscape:window-x="0"
     inkscape:window-y="25"
     inkscape:window-maximized="1"
     inkscape:current-layer="svg2"
     fit-margin-top="0"
     fit-margin-left="0"
     fit-margin-right="0"
     fit-margin-bottom="0" />
  <rect
     style="opacity:0;fill:#008080;fill-opacity:1;stroke:none;stroke-width:126.84169006;stroke-linecap:square;stroke-miterlimit:4;stroke-dasharray:none;stroke-opacity:1"
     id="rect4143-6-7-3"
     width="208.84604"
     height="203.66801"
     x="0"
     y="-2.5248075"
     rx="0"
     ry="0" />
  <path
     style="fill:#2aff00;fill-opacity:1;stroke:none;stroke-width:14.93257046;stroke-miterlimit:4;stroke-dasharray:none;stroke-opacity:1"
     d="m 103.80513,2.4234374 c -2.52481,0.007 -5.073722,0.40246 -7.667772,1.29816 -17.95649,6.8384596 -34.52109,16.9932896 -52.87818,22.9167596 -7.683189,4.5355 -20.066289,2.15257 -24.993799,9.69289 -0.199132,13.13234 1.3513,26.31697 3.39251,39.29083 7.35789,44.828983 31.138549,88.115763 69.511869,113.545273 3.55584,2.29874 6.90798,4.96853 10.644872,6.97543 8.67433,0.80856 15.52631,-7.96359 22.69175,-12.32381 37.029,-30.32716 58.90041,-76.67622 64.38848,-123.740133 -0.57346,-8.78412 5.056,-20.56131 -1.50586,-27.36511 -18.30334,-3.66723 -35.72985,-10.73579 -52.48008,-18.84921 C 125.05773,9.5489274 114.74576,2.3920574 103.80513,2.4234374 Z m -48.395202,37.3003196 28.94018,0.10386 18.762672,52.94741 21.37629,-52.94741 c 9.64667,-0.0132 19.29341,-0.0215 28.94021,-0.0346 -16.20882,39.67345 -32.41152,79.341223 -48.62024,119.014843 -9.460612,0.0268 -18.925722,0.0592 -28.386322,0.087 l 13.82968,-34.27153 C 78.640518,96.321227 67.022048,68.026057 55.409928,39.724007 Z"
     id="path4800-2-6-28-9-5-3-6"
     inkscape:connector-curvature="0" />
</svg>
